# xmcd CD database file
#
# Track frame offsets:
#	150
#	10392
#	27307
#	40527
#	57874
#	79376
#	87743
#	101470
#	123199
#	144641
#	152830
#	165166
#
# Disc length: 2387 seconds
#
# Revision: 0
# Processed by: cddbd v1.5.2PL0 Copyright (c) Steve Scherf et al.
# Submitted via: CDex 1.51
#
DISCID=9009510c
DTITLE=Susie Glaze - Blue Eyed Darlin'
DYEAR=2005
DGENRE=Country
TTITLE0=Hurricane
TTITLE1=Annabelle
TTITLE2=The Boy From Harlan County
TTITLE3=My Heart Is A Diamond
TTITLE4=William Gray
TTITLE5=Long Lonesome Way
TTITLE6=My Own Backyard
TTITLE7=The River Road
TTITLE8=Blue Eyed Darlin'
TTITLE9=Jesus Grant Us All A Blessing
TTITLE10=Back Home
TTITLE11=After You're Gone
EXTD=YEAR: 2005
EXTT0=
EXTT1=
EXTT2=
EXTT3=
EXTT4=
EXTT5=
EXTT6=
EXTT7=
EXTT8=
EXTT9=
EXTT10=
EXTT11=
PLAYORDER=
